<svg xmlns="http://www.w3.org/2000/svg"><symbol id="facebook-ico" viewBox="160.9 50 190.2 412"><path id="facebook-icon" d="M204.1 184.7H161v70.4h43.1V462h83V254.2H345l6.2-69.5h-64v-39.6c0-16.4 3.3-22.9 19.1-22.9h44.9V50h-57.4c-61.7 0-89.6 27.2-89.6 79.2-.1 45.4-.1 55.5-.1 55.5z"/></symbol><symbol id="twitter-ico" viewBox="50 88.6 412 334.8"><path id="twitter-icon" d="M462 128.2c-15.2 6.7-31.4 11.3-48.5 13.3 17.4-10.5 30.9-27 37.2-46.8-16.3 9.7-34.4 16.7-53.7 20.5-15.4-16.4-37.4-26.7-61.7-26.7-54.6 0-94.7 50.9-82.3 103.8-70.2-3.5-132.5-37.2-174.2-88.3-22.1 38-11.5 87.7 26.2 112.8-13.9-.4-26.9-4.2-38.3-10.6-.9 39.2 27.1 75.8 67.8 83.9-11.9 3.2-24.9 4-38.2 1.4 10.8 33.6 42 58 79 58.7-35.5 27.8-80.3 40.3-125.1 35 37.4 24 81.8 38 129.6 38 156.9 0 245.6-132.6 240.3-251.4 16.2-11.7 30.6-26.6 41.9-43.6z"/></symbol><symbol id="google-ico" viewBox="9 218.8 412 404.1"><path id="google-plus-icon" d="M421 306.2h-54.6v54.6h-27.3v-54.6h-54.6v-27.3h54.6v-54.6h27.3v54.6H421v27.3zm-154.4 226c0 40.9-37.4 90.8-131.4 90.8C66.4 622.9 9 593.3 9 543.4c0-38.5 24.4-88.5 138.3-88.5-16.9-13.8-21.1-33.1-10.7-54-66.7 0-100.9-39.2-100.9-89 0-48.7 36.2-93 110.1-93h118.4l-26.5 27.8h-31.1c21.9 12.6 33.6 38.4 33.6 66.9 0 26.2-14.4 47.4-35 63.3-36.5 28.2-27.2 44 11.1 71.9 37.8 28.2 50.3 50 50.3 83.4zm-73.9-216.9c-5.5-41.9-32.8-76.3-64.7-77.2-31.9-.9-53.3 31.1-47.8 73s35.8 71.2 67.7 72.1c32 1 50.3-25.9 44.8-67.9zm32.9 221.1c0-34.5-31.4-67.3-84.2-67.3-47.5-.5-87.8 30-87.8 65.5 0 36.2 34.3 66.2 81.9 66.2 60.8 0 90.1-28.3 90.1-64.4z"/></symbol><symbol id="vk" viewBox="50 138.2 412 235.5"><path id="vk-icon" d="M275.9 373.7c10.4 0 14.7-7 14.6-15.7-.5-32.9 12.3-50.6 35.3-27.5 25.6 25.6 30.8 43.2 61.9 43.2h54.9c43.2 0 4.7-43.4-25.7-71.6-28.9-26.9-30.3-27.5-5.4-59.8 31-40.1 71.4-91.9 35.6-91.9h-68.3c-13.3 0-14.2 7.7-18.9 18.9-17.1 40.3-49.5 92.5-61.9 84.5-12.9-8.3-7-36.6-6-85.6.3-12.9.2-21.8-19.6-26.4-54-12.5-100.8 12.1-81.7 15.7 27 5 24.4 58.7 18.1 83.9-11 43.9-52.1-34.8-69.3-73.9-4.1-9.4-5.4-17-20.2-17H63.4c-10.8 0-16.1 4.9-12.3 14.9 3.8 10 47 106.7 98.1 161.9 47.4 51 94.2 46.4 126.7 46.4z"/></symbol></svg>