<?xml version="1.0" encoding="utf-8"?>
<!-- Generator: Adobe Illustrator 21.1.0, SVG Export Plug-In . SVG Version: 6.00 Build 0)  -->
<svg version="1.1" id="Layer_1" xmlns="http://www.w3.org/2000/svg" xmlns:xlink="http://www.w3.org/1999/xlink" x="0px" y="0px"
	 viewBox="79.7 203.3 437.6 269.7" style="enable-background:new 79.7 203.3 437.6 269.7;" xml:space="preserve">
<g>
	<circle cx="106.6" cy="230.2" r="26.9"/>
</g>
<g>
	<path d="M493.9,253.6H179.6c-12.9,0-23.4-10.5-23.4-23.4s10.5-23.4,23.4-23.4h314.3c12.9,0,23.4,10.5,23.4,23.4
		C517.3,243.1,506.8,253.6,493.9,253.6z"/>
</g>
<g>
	<circle cx="106.6" cy="338.1" r="26.9"/>
</g>
<g>
	<path d="M493.9,361.5H179.6c-12.9,0-23.4-10.5-23.4-23.4c0-12.9,10.5-23.4,23.4-23.4h314.3c12.9,0,23.4,10.5,23.4,23.4
		C517.3,351,506.8,361.5,493.9,361.5z"/>
</g>
<g>
	<g>
		<circle cx="106.6" cy="446" r="26.9"/>
	</g>
	<g>
		<path d="M493.9,469.4H179.6c-12.9,0-23.4-10.5-23.4-23.4c0-12.9,10.5-23.4,23.4-23.4h314.3c12.9,0,23.4,10.5,23.4,23.4
			C517.3,459,506.8,469.4,493.9,469.4z"/>
	</g>
</g>
</svg>
